<?xml version="1.0" standalone="no"?><!-- Generator: Gravit.io --><svg xmlns="http://www.w3.org/2000/svg" xmlns:xlink="http://www.w3.org/1999/xlink" style="isolation:isolate" viewBox="0 0 566.929 164.409" width="566.929" height="164.409"><defs><clipPath id="_clipPath_JliaMI1mngpxWxEX6Rs1pzzwFj5nZqkV"><rect width="566.929" height="164.409"/></clipPath></defs><g clip-path="url(#_clipPath_JliaMI1mngpxWxEX6Rs1pzzwFj5nZqkV)"><g style="isolation:isolate"><g style="isolation:isolate"><path d=" M 538.791 52.343 L 539.264 52.869 L 539.264 52.869 Q 541.733 55.758 541.733 59.226 L 541.733 59.226 L 541.733 59.226 Q 541.733 62.693 540.13 64.085 L 540.13 64.085 L 540.13 64.085 Q 538.528 65.477 535.323 65.477 L 535.323 65.477 L 515.937 65.477 L 515.937 56.546 L 532.329 56.546 L 532.329 56.546 Q 533.642 56.546 533.642 55.39 L 533.642 55.39 L 533.642 55.39 Q 533.642 53.919 532.907 52.921 L 532.907 52.921 L 515.937 52.921 L 515.937 43.99 L 532.329 43.99 L 532.329 43.99 Q 533.642 43.99 533.642 42.834 L 533.642 42.834 L 533.642 42.834 Q 533.642 41.363 532.907 40.365 L 532.907 40.365 L 515.937 40.365 L 515.937 31.539 L 541.102 31.539 L 541.102 39.577 L 539.264 40.102 L 539.264 40.312 L 539.264 40.312 Q 541.733 43.202 541.733 47.168 L 541.733 47.168 L 541.733 47.168 Q 541.733 51.135 538.791 52.343 L 538.791 52.343 Z  M 534.22 79.137 L 534.22 79.137 L 534.22 79.137 Q 534.22 77.771 533.301 77.351 L 533.301 77.351 L 533.301 77.351 Q 532.381 76.93 530.49 76.93 L 530.49 76.93 L 530.49 81.501 L 531.751 81.501 L 531.751 81.501 Q 534.22 81.501 534.22 79.137 Z  M 541.733 79.347 L 541.733 79.347 L 541.733 79.347 Q 541.733 84.758 539.132 87.096 L 539.132 87.096 L 539.132 87.096 Q 536.532 89.434 531.698 89.434 L 531.698 89.434 L 531.698 89.434 Q 531.068 89.434 526.024 89.066 L 526.024 89.066 L 526.024 77.088 L 526.024 77.088 Q 522.084 77.088 522.084 80.713 L 522.084 80.713 L 522.084 80.713 Q 522.084 82.447 523.292 87.49 L 523.292 87.49 L 516.778 88.226 L 516.778 88.226 Q 515.412 83.813 515.412 79.4 L 515.412 79.4 L 515.412 79.4 Q 515.412 73.988 518.958 71.099 L 518.958 71.099 L 518.958 71.099 Q 522.504 68.209 528.599 68.209 L 528.599 68.209 L 528.599 68.209 Q 541.733 68.209 541.733 79.347 Z " fill-rule="evenodd" fill="rgb(255,32,110)"/><path d=" M 50.524 45.675 L 75.208 45.675 L 59.762 122.648 L 24.023 122.648 L 8.425 45.675 L 35.078 45.675 L 41.59 95.008 L 43.558 95.008 L 50.524 45.675 L 50.524 45.675 Z  M 110.038 66.726 L 110.038 66.726 L 110.038 66.726 Q 106.1 66.726 104.889 69.538 L 104.889 69.538 L 104.889 69.538 Q 103.677 72.351 103.677 78.136 L 103.677 78.136 L 116.852 78.136 L 116.852 74.279 L 116.852 74.279 Q 116.852 66.726 110.038 66.726 Z  M 110.643 43.747 L 110.643 43.747 L 110.643 43.747 Q 126.241 43.747 132.98 51.701 L 132.98 51.701 L 132.98 51.701 Q 139.719 59.656 139.719 74.44 L 139.719 74.44 L 139.719 74.44 Q 139.719 76.368 138.659 91.795 L 138.659 91.795 L 104.132 91.795 L 104.132 91.795 Q 104.132 103.847 114.581 103.847 L 114.581 103.847 L 114.581 103.847 Q 119.578 103.847 134.116 100.151 L 134.116 100.151 L 136.236 120.077 L 136.236 120.077 Q 123.515 124.255 110.795 124.255 L 110.795 124.255 L 110.795 124.255 Q 95.197 124.255 86.868 113.408 L 86.868 113.408 L 86.868 113.408 Q 78.539 102.561 78.539 83.921 L 78.539 83.921 L 78.539 83.921 Q 78.539 43.747 110.643 43.747 Z  M 171.823 79.421 L 171.823 79.421 L 171.823 122.648 L 146.685 122.648 L 146.685 45.675 L 168.794 45.675 L 170.308 50.336 L 170.914 50.336 L 170.914 50.336 Q 174.397 46.157 177.956 44.952 L 177.956 44.952 L 177.956 44.952 Q 181.514 43.747 189.54 43.747 L 189.54 43.747 L 188.48 69.458 L 181.514 69.458 L 181.514 69.458 Q 175.608 69.458 173.716 71.386 L 173.716 71.386 L 173.716 71.386 Q 171.823 73.315 171.823 79.421 Z  M 219.676 46.479 L 219.676 122.648 L 194.689 122.648 L 194.689 46.479 L 219.676 46.479 L 219.676 46.479 Z  M 196.658 40.373 L 196.658 40.373 L 196.658 40.373 Q 193.478 37.48 193.478 31.052 L 193.478 31.052 L 193.478 31.052 Q 193.478 24.625 196.658 21.571 L 196.658 21.571 L 196.658 21.571 Q 199.838 18.518 207.107 18.518 L 207.107 18.518 L 207.107 18.518 Q 214.376 18.518 217.556 21.571 L 217.556 21.571 L 217.556 21.571 Q 220.736 24.625 220.736 30.972 L 220.736 30.972 L 220.736 30.972 Q 220.736 37.319 217.556 40.292 L 217.556 40.292 L 217.556 40.292 Q 214.376 43.265 207.107 43.265 L 207.107 43.265 L 207.107 43.265 Q 199.838 43.265 196.658 40.373 Z  M 253.143 18.518 L 253.143 18.518 L 253.143 18.518 Q 262.531 18.518 272.829 19.482 L 272.829 19.482 L 270.709 42.944 L 270.709 42.944 Q 263.894 42.14 260.79 42.14 L 260.79 42.14 L 260.79 42.14 Q 257.686 42.14 257.686 45.033 L 257.686 45.033 L 257.686 47.925 L 270.103 47.925 L 268.892 67.851 L 257.988 67.851 L 257.988 122.648 L 232.699 122.648 L 232.699 67.851 L 226.036 67.851 L 226.036 47.925 L 232.699 47.925 L 232.699 39.89 L 232.699 39.89 Q 232.699 18.518 253.143 18.518 Z  M 299.178 46.479 L 299.178 122.648 L 274.192 122.648 L 274.192 46.479 L 299.178 46.479 L 299.178 46.479 Z  M 276.161 40.373 L 276.161 40.373 L 276.161 40.373 Q 272.98 37.48 272.98 31.052 L 272.98 31.052 L 272.98 31.052 Q 272.98 24.625 276.161 21.571 L 276.161 21.571 L 276.161 21.571 Q 279.341 18.518 286.609 18.518 L 286.609 18.518 L 286.609 18.518 Q 293.878 18.518 297.058 21.571 L 297.058 21.571 L 297.058 21.571 Q 300.238 24.625 300.238 30.972 L 300.238 30.972 L 300.238 30.972 Q 300.238 37.319 297.058 40.292 L 297.058 40.292 L 297.058 40.292 Q 293.878 43.265 286.609 43.265 L 286.609 43.265 L 286.609 43.265 Q 279.341 43.265 276.161 40.373 Z  M 370.201 144.663 L 344.76 144.663 L 344.76 120.237 L 344.154 120.237 L 344.154 120.237 Q 338.854 124.255 332.645 124.255 L 332.645 124.255 L 332.645 124.255 Q 319.016 124.255 313.413 114.051 L 313.413 114.051 L 313.413 114.051 Q 307.81 103.847 307.81 84.162 L 307.81 84.162 L 307.81 84.162 Q 307.81 64.477 314.019 54.112 L 314.019 54.112 L 314.019 54.112 Q 320.228 43.747 331.282 43.747 L 331.282 43.747 L 331.282 43.747 Q 342.337 43.747 347.032 50.496 L 347.032 50.496 L 347.789 50.496 L 349.303 45.675 L 370.201 45.675 L 370.201 144.663 L 370.201 144.663 Z  M 338.627 66.405 L 338.627 66.405 L 338.627 66.405 Q 335.371 66.405 334.311 70.503 L 334.311 70.503 L 334.311 70.503 Q 333.251 74.6 333.251 82.233 L 333.251 82.233 L 333.251 82.233 Q 333.251 89.866 333.403 92.598 L 333.403 92.598 L 333.403 92.598 Q 333.554 95.33 334.084 98.142 L 334.084 98.142 L 334.084 98.142 Q 334.614 100.954 335.75 101.999 L 335.75 101.999 L 335.75 101.999 Q 336.885 103.043 339.536 103.043 L 339.536 103.043 L 339.536 103.043 Q 342.186 103.043 345.063 101.597 L 345.063 101.597 L 345.063 68.333 L 345.063 68.333 Q 341.883 66.405 338.627 66.405 Z  M 397.308 124.255 L 397.308 124.255 L 397.308 124.255 Q 379.287 124.255 379.287 103.043 L 379.287 103.043 L 379.287 45.675 L 405.031 45.675 L 405.031 96.455 L 405.031 96.455 Q 405.031 100.472 408.362 100.472 L 408.362 100.472 L 408.362 100.472 Q 412.602 100.472 415.48 98.222 L 415.48 98.222 L 415.48 45.675 L 440.921 45.675 L 440.921 122.326 L 416.843 122.326 L 416.843 116.702 L 416.237 116.702 L 416.237 116.702 Q 407.908 124.255 397.308 124.255 Z  M 480.293 66.726 L 480.293 66.726 L 480.293 66.726 Q 476.356 66.726 475.145 69.538 L 475.145 69.538 L 475.145 69.538 Q 473.933 72.351 473.933 78.136 L 473.933 78.136 L 487.108 78.136 L 487.108 74.279 L 487.108 74.279 Q 487.108 66.726 480.293 66.726 Z  M 480.899 43.747 L 480.899 43.747 L 480.899 43.747 Q 496.497 43.747 503.236 51.701 L 503.236 51.701 L 503.236 51.701 Q 509.974 59.656 509.974 74.44 L 509.974 74.44 L 509.974 74.44 Q 509.974 76.368 508.914 91.795 L 508.914 91.795 L 474.387 91.795 L 474.387 91.795 Q 474.387 103.847 484.836 103.847 L 484.836 103.847 L 484.836 103.847 Q 489.834 103.847 504.371 100.151 L 504.371 100.151 L 506.491 120.077 L 506.491 120.077 Q 493.771 124.255 481.05 124.255 L 481.05 124.255 L 481.05 124.255 Q 465.453 124.255 457.124 113.408 L 457.124 113.408 L 457.124 113.408 Q 448.795 102.561 448.795 83.921 L 448.795 83.921 L 448.795 83.921 Q 448.795 43.747 480.899 43.747 Z " fill-rule="evenodd" fill="rgb(12,15,10)"/></g><g style="isolation:isolate"><g><path d=" M 551.025 117.774 C 551.025 112.003 547.94 106.585 542.972 103.635 C 542.535 103.375 541.969 103.519 541.71 103.956 C 541.621 104.104 541.58 104.266 541.58 104.426 C 541.58 104.741 541.74 105.047 542.03 105.22 C 546.441 107.84 549.182 112.65 549.182 117.774 C 549.182 118.283 549.594 118.695 550.104 118.695 C 550.613 118.695 551.025 118.283 551.025 117.774 Z " fill="rgb(65,234,212)"/><path d=" M 539.032 102.877 C 539.146 102.382 538.84 101.886 538.344 101.77 C 537.168 101.495 536.439 101.339 535.131 101.339 C 534.621 101.339 534.209 101.752 534.209 102.261 C 534.209 102.77 534.621 103.182 535.131 103.182 C 536.241 103.182 536.821 103.307 537.925 103.565 C 538.421 103.681 538.915 103.373 539.032 102.877 Z " fill="rgb(65,234,212)"/><path d=" M 507.562 153.238 L 522.437 138.362 C 522.8 138 523.057 137.636 523.246 137.284 C 526.582 139.231 530.457 140.353 534.591 140.353 C 547.042 140.353 557.17 130.224 557.17 117.774 C 557.17 105.324 547.042 95.195 534.591 95.195 C 522.141 95.195 512.013 105.324 512.013 117.774 C 512.013 122.206 513.302 126.341 515.516 129.832 C 515.204 130.021 514.903 130.257 514.619 130.541 L 499.742 145.418 C 498.697 146.465 498.123 147.851 498.123 149.329 C 498.123 150.806 498.697 152.193 499.742 153.239 C 500.786 154.283 502.175 154.857 503.651 154.857 C 505.128 154.857 506.516 154.282 507.562 153.238 Z  M 534.59 98.881 C 545.008 98.881 553.483 107.356 553.483 117.774 C 553.483 128.192 545.008 136.666 534.59 136.666 C 524.172 136.666 515.699 128.19 515.699 117.774 C 515.699 107.356 524.172 98.881 534.59 98.881 Z  M 502.348 150.631 C 501.653 149.933 501.653 148.72 502.348 148.023 L 517.224 133.148 C 517.352 133.019 517.438 132.971 517.438 132.964 C 517.477 132.967 517.857 133.018 518.909 134.071 C 519.962 135.122 520.01 135.501 520.017 135.513 C 520.01 135.537 519.962 135.623 519.83 135.756 L 504.955 150.63 C 504.606 150.979 504.143 151.17 503.65 151.17 C 503.16 151.169 502.697 150.978 502.348 150.631 Z " fill="rgb(65,234,212)"/></g></g></g></g></svg>