<?xml version="1.0" standalone="no"?><!-- Generator: Gravit.io --><svg xmlns="http://www.w3.org/2000/svg" xmlns:xlink="http://www.w3.org/1999/xlink" style="isolation:isolate" viewBox="0 0 566.929 164.409" width="566.929" height="164.409"><defs><clipPath id="_clipPath_0k1rjjTVoWT685DE0Tb6ZSbyASx48j3r"><rect width="566.929" height="164.409"/></clipPath></defs><g clip-path="url(#_clipPath_0k1rjjTVoWT685DE0Tb6ZSbyASx48j3r)"><g style="isolation:isolate"><g style="isolation:isolate"><path d=" M 524.612 52.343 L 525.085 52.869 L 525.085 52.869 Q 527.554 55.758 527.554 59.226 L 527.554 59.226 L 527.554 59.226 Q 527.554 62.693 525.952 64.085 L 525.952 64.085 L 525.952 64.085 Q 524.349 65.477 521.145 65.477 L 521.145 65.477 L 501.759 65.477 L 501.759 56.546 L 518.15 56.546 L 518.15 56.546 Q 519.464 56.546 519.464 55.39 L 519.464 55.39 L 519.464 55.39 Q 519.464 53.919 518.728 52.921 L 518.728 52.921 L 501.759 52.921 L 501.759 43.99 L 518.15 43.99 L 518.15 43.99 Q 519.464 43.99 519.464 42.834 L 519.464 42.834 L 519.464 42.834 Q 519.464 41.363 518.728 40.365 L 518.728 40.365 L 501.759 40.365 L 501.759 31.539 L 526.924 31.539 L 526.924 39.577 L 525.085 40.102 L 525.085 40.312 L 525.085 40.312 Q 527.554 43.202 527.554 47.168 L 527.554 47.168 L 527.554 47.168 Q 527.554 51.135 524.612 52.343 L 524.612 52.343 L 524.612 52.343 Z  M 520.041 79.137 L 520.041 79.137 L 520.041 79.137 Q 520.041 77.771 519.122 77.351 L 519.122 77.351 L 519.122 77.351 Q 518.203 76.93 516.311 76.93 L 516.311 76.93 L 516.311 81.501 L 517.572 81.501 L 517.572 81.501 Q 520.041 81.501 520.041 79.137 Z  M 527.554 79.347 L 527.554 79.347 L 527.554 79.347 Q 527.554 84.758 524.954 87.096 L 524.954 87.096 L 524.954 87.096 Q 522.353 89.434 517.52 89.434 L 517.52 89.434 L 517.52 89.434 Q 516.889 89.434 511.846 89.066 L 511.846 89.066 L 511.846 77.088 L 511.846 77.088 Q 507.906 77.088 507.906 80.713 L 507.906 80.713 L 507.906 80.713 Q 507.906 82.447 509.114 87.49 L 509.114 87.49 L 502.599 88.226 L 502.599 88.226 Q 501.233 83.813 501.233 79.4 L 501.233 79.4 L 501.233 79.4 Q 501.233 73.988 504.78 71.099 L 504.78 71.099 L 504.78 71.099 Q 508.326 68.209 514.42 68.209 L 514.42 68.209 L 514.42 68.209 Q 527.554 68.209 527.554 79.347 Z " fill-rule="evenodd" fill="rgb(255,32,110)"/><path d=" M 64.858 38.542 L 93.494 38.542 L 75.575 122.692 L 34.115 122.692 L 16.02 38.542 L 46.939 38.542 L 54.493 92.475 L 56.777 92.475 L 64.858 38.542 L 64.858 38.542 Z  M 133.9 61.556 L 133.9 61.556 L 133.9 61.556 Q 129.333 61.556 127.927 64.63 L 127.927 64.63 L 127.927 64.63 Q 126.522 67.705 126.522 74.029 L 126.522 74.029 L 141.806 74.029 L 141.806 69.813 L 141.806 69.813 Q 141.806 61.556 133.9 61.556 Z  M 134.603 36.434 L 134.603 36.434 L 134.603 36.434 Q 152.698 36.434 160.516 45.13 L 160.516 45.13 L 160.516 45.13 Q 168.334 53.826 168.334 69.988 L 168.334 69.988 L 168.334 69.988 Q 168.334 72.097 167.104 88.962 L 167.104 88.962 L 127.049 88.962 L 127.049 88.962 Q 127.049 102.138 139.171 102.138 L 139.171 102.138 L 139.171 102.138 Q 144.968 102.138 161.833 98.097 L 161.833 98.097 L 164.293 119.881 L 164.293 119.881 Q 149.536 124.449 134.779 124.449 L 134.779 124.449 L 134.779 124.449 Q 116.684 124.449 107.021 112.591 L 107.021 112.591 L 107.021 112.591 Q 97.359 100.732 97.359 80.353 L 97.359 80.353 L 97.359 80.353 Q 97.359 36.434 134.603 36.434 Z  M 205.577 75.434 L 205.577 75.434 L 205.577 122.692 L 176.415 122.692 L 176.415 38.542 L 202.064 38.542 L 203.821 43.636 L 204.523 43.636 L 204.523 43.636 Q 208.564 39.069 212.693 37.751 L 212.693 37.751 L 212.693 37.751 Q 216.821 36.434 226.132 36.434 L 226.132 36.434 L 224.902 64.542 L 216.821 64.542 L 216.821 64.542 Q 209.969 64.542 207.773 66.65 L 207.773 66.65 L 207.773 66.65 Q 205.577 68.759 205.577 75.434 Z  M 261.092 39.42 L 261.092 122.692 L 232.105 122.692 L 232.105 39.42 L 261.092 39.42 L 261.092 39.42 Z  M 234.389 32.744 L 234.389 32.744 L 234.389 32.744 Q 230.7 29.582 230.7 22.555 L 230.7 22.555 L 230.7 22.555 Q 230.7 15.528 234.389 12.19 L 234.389 12.19 L 234.389 12.19 Q 238.078 8.852 246.511 8.852 L 246.511 8.852 L 246.511 8.852 Q 254.943 8.852 258.633 12.19 L 258.633 12.19 L 258.633 12.19 Q 262.322 15.528 262.322 22.467 L 262.322 22.467 L 262.322 22.467 Q 262.322 29.406 258.633 32.657 L 258.633 32.657 L 258.633 32.657 Q 254.943 35.907 246.511 35.907 L 246.511 35.907 L 246.511 35.907 Q 238.078 35.907 234.389 32.744 Z  M 299.917 8.852 L 299.917 8.852 L 299.917 8.852 Q 310.809 8.852 322.756 9.906 L 322.756 9.906 L 320.296 35.555 L 320.296 35.555 Q 312.39 34.677 308.789 34.677 L 308.789 34.677 L 308.789 34.677 Q 305.188 34.677 305.188 37.839 L 305.188 37.839 L 305.188 41.001 L 319.593 41.001 L 318.188 62.786 L 305.539 62.786 L 305.539 122.692 L 276.201 122.692 L 276.201 62.786 L 268.471 62.786 L 268.471 41.001 L 276.201 41.001 L 276.201 32.217 L 276.201 32.217 Q 276.201 8.852 299.917 8.852 Z  M 353.324 39.42 L 353.324 122.692 L 324.337 122.692 L 324.337 39.42 L 353.324 39.42 L 353.324 39.42 Z  M 326.62 32.744 L 326.62 32.744 L 326.62 32.744 Q 322.931 29.582 322.931 22.555 L 322.931 22.555 L 322.931 22.555 Q 322.931 15.528 326.62 12.19 L 326.62 12.19 L 326.62 12.19 Q 330.31 8.852 338.742 8.852 L 338.742 8.852 L 338.742 8.852 Q 347.175 8.852 350.864 12.19 L 350.864 12.19 L 350.864 12.19 Q 354.553 15.528 354.553 22.467 L 354.553 22.467 L 354.553 22.467 Q 354.553 29.406 350.864 32.657 L 350.864 32.657 L 350.864 32.657 Q 347.175 35.907 338.742 35.907 L 338.742 35.907 L 338.742 35.907 Q 330.31 35.907 326.62 32.744 Z  M 401.196 62.083 L 401.196 62.083 L 401.196 62.083 Q 396.014 62.083 394.257 66.738 L 394.257 66.738 L 394.257 66.738 Q 392.5 71.394 392.5 81.232 L 392.5 81.232 L 392.5 81.232 Q 392.5 91.07 394.169 95.462 L 394.169 95.462 L 394.169 95.462 Q 395.838 99.854 401.196 99.854 L 401.196 99.854 L 401.196 99.854 Q 406.555 99.854 415.163 97.921 L 415.163 97.921 L 418.325 120.408 L 418.325 120.408 Q 406.203 124.449 396.716 124.449 L 396.716 124.449 L 396.716 124.449 Q 380.027 124.449 371.507 113.205 L 371.507 113.205 L 371.507 113.205 Q 362.986 101.962 362.986 81.759 L 362.986 81.759 L 362.986 81.759 Q 362.986 61.556 371.77 48.995 L 371.77 48.995 L 371.77 48.995 Q 380.554 36.434 397.244 36.434 L 397.244 36.434 L 397.244 36.434 Q 409.717 36.434 419.73 40.65 L 419.73 40.65 L 416.568 66.475 L 416.568 66.475 Q 406.379 62.083 401.196 62.083 Z  M 488.421 60.502 L 488.421 60.502 L 487.543 96.867 L 487.543 96.867 Q 487.543 100.205 489.212 101.347 L 489.212 101.347 L 489.212 101.347 Q 490.881 102.489 494.921 102.489 L 494.921 102.489 L 492.286 123.746 L 492.286 123.746 Q 482.097 124.449 481.042 124.449 L 481.042 124.449 L 481.042 124.449 Q 468.042 124.449 464.529 115.489 L 464.529 115.489 L 463.65 115.489 L 463.65 115.489 Q 457.15 124.449 443.623 124.449 L 443.623 124.449 L 443.623 124.449 Q 433.258 124.449 427.724 117.773 L 427.724 117.773 L 427.724 117.773 Q 422.19 111.097 422.19 99.502 L 422.19 99.502 L 422.19 99.502 Q 422.19 84.921 431.237 79.299 L 431.237 79.299 L 431.237 79.299 Q 440.285 73.678 459.785 71.921 L 459.785 71.921 L 459.785 67.705 L 459.785 67.705 Q 459.785 62.786 454.866 62.786 L 454.866 62.786 L 454.866 62.786 Q 446.434 62.786 428.514 67.88 L 428.514 67.88 L 424.122 42.231 L 424.122 42.231 Q 446.609 36.434 461.542 36.434 L 461.542 36.434 L 461.542 36.434 Q 476.475 36.434 482.448 42.231 L 482.448 42.231 L 482.448 42.231 Q 488.421 48.028 488.421 60.502 Z  M 454.515 103.894 L 454.515 103.894 L 454.515 103.894 Q 461.015 103.894 461.015 97.043 L 461.015 97.043 L 461.015 88.435 L 461.015 88.435 Q 454.515 89.313 451.792 91.158 L 451.792 91.158 L 451.792 91.158 Q 449.069 93.002 449.069 97.394 L 449.069 97.394 L 449.069 97.394 Q 449.069 103.894 454.515 103.894 Z " fill-rule="evenodd" fill="rgb(12,15,10)"/></g><g style="isolation:isolate"><g><path d=" M 536.847 117.774 C 536.847 112.003 533.761 106.585 528.794 103.635 C 528.357 103.375 527.79 103.519 527.531 103.956 C 527.443 104.104 527.401 104.266 527.401 104.426 C 527.401 104.741 527.562 105.047 527.852 105.22 C 532.263 107.84 535.003 112.65 535.003 117.774 C 535.003 118.283 535.415 118.695 535.925 118.695 C 536.435 118.695 536.847 118.283 536.847 117.774 Z " fill="rgb(65,234,212)"/><path d=" M 524.853 102.877 C 524.967 102.382 524.661 101.886 524.165 101.77 C 522.99 101.495 522.261 101.339 520.952 101.339 C 520.442 101.339 520.03 101.752 520.03 102.261 C 520.03 102.77 520.442 103.182 520.952 103.182 C 522.062 103.182 522.642 103.307 523.746 103.565 C 524.242 103.681 524.737 103.373 524.853 102.877 Z " fill="rgb(65,234,212)"/><path d=" M 493.384 153.238 L 508.259 138.362 C 508.621 138 508.878 137.636 509.067 137.284 C 512.403 139.231 516.279 140.353 520.413 140.353 C 532.863 140.353 542.992 130.224 542.992 117.774 C 542.992 105.324 532.863 95.195 520.413 95.195 C 507.962 95.195 497.835 105.324 497.835 117.774 C 497.835 122.206 499.123 126.341 501.338 129.832 C 501.025 130.021 500.724 130.257 500.44 130.541 L 485.563 145.418 C 484.519 146.465 483.945 147.851 483.945 149.329 C 483.945 150.806 484.519 152.193 485.563 153.239 C 486.607 154.283 487.997 154.857 489.472 154.857 C 490.95 154.857 492.338 154.282 493.384 153.238 Z  M 520.412 98.881 C 530.829 98.881 539.304 107.356 539.304 117.774 C 539.304 128.192 530.829 136.666 520.412 136.666 C 509.993 136.666 501.52 128.19 501.52 117.774 C 501.52 107.356 509.993 98.881 520.412 98.881 Z  M 488.169 150.631 C 487.474 149.933 487.474 148.72 488.169 148.023 L 503.045 133.148 C 503.174 133.019 503.259 132.971 503.259 132.964 C 503.299 132.967 503.679 133.018 504.73 134.071 C 505.783 135.122 505.831 135.501 505.839 135.513 C 505.831 135.537 505.783 135.623 505.652 135.756 L 490.776 150.63 C 490.427 150.979 489.964 151.17 489.471 151.17 C 488.981 151.169 488.518 150.978 488.169 150.631 Z " fill="rgb(65,234,212)"/></g></g></g></g></svg>