<?xml version="1.0" standalone="no"?><!-- Generator: Gravit.io --><svg xmlns="http://www.w3.org/2000/svg" xmlns:xlink="http://www.w3.org/1999/xlink" style="isolation:isolate" viewBox="0 0 566.929 283.465" width="566.929" height="283.465"><defs><clipPath id="_clipPath_7QACzz5WfsYqwHT6fdC35cMdDs649HQq"><rect width="566.929" height="283.465"/></clipPath></defs><g clip-path="url(#_clipPath_7QACzz5WfsYqwHT6fdC35cMdDs649HQq)"><g style="isolation:isolate"><mask id="_mask_Pwvtq27YPmy3VXayUnGPnDJ88lOEyzg3"><path d=" M 480.576 208.885 L 490.973 196.242 L 493.983 166.933 L 521.618 159.75 L 549.527 174.979 L 540.771 206.873 L 515.051 217.218 L 505.748 210.896 L 493.983 217.218 L 485.774 226.125 L 475.103 222.39 L 480.576 208.885 Z " fill="white" style="mix-blend-mode:overlay;" stroke="none"/></mask><g style="isolation:isolate" mask="url(#_mask_Pwvtq27YPmy3VXayUnGPnDJ88lOEyzg3)"><g><path d=" M 532.378 186.288 C 532.378 180.582 529.327 175.225 524.416 172.308 C 523.984 172.051 523.423 172.193 523.167 172.626 C 523.08 172.772 523.039 172.932 523.039 173.091 C 523.039 173.403 523.197 173.705 523.485 173.875 C 527.846 176.466 530.556 181.222 530.556 186.288 C 530.556 186.792 530.963 187.2 531.467 187.2 C 531.971 187.2 532.378 186.792 532.378 186.288 Z " fill="rgb(147,134,134)"/><path d=" M 520.519 171.559 C 520.632 171.07 520.33 170.58 519.84 170.465 C 518.677 170.192 517.956 170.038 516.662 170.038 C 516.158 170.038 515.751 170.446 515.751 170.949 C 515.751 171.453 516.158 171.861 516.662 171.861 C 517.76 171.861 518.333 171.984 519.425 172.239 C 519.915 172.354 520.405 172.049 520.519 171.559 Z " fill="rgb(147,134,134)"/><path d=" M 489.403 221.354 L 504.112 206.645 C 504.47 206.287 504.724 205.927 504.911 205.579 C 508.209 207.505 512.041 208.614 516.129 208.614 C 528.44 208.614 538.454 198.599 538.454 186.288 C 538.454 173.978 528.44 163.963 516.129 163.963 C 503.818 163.963 493.805 173.978 493.805 186.288 C 493.805 190.671 495.079 194.759 497.268 198.211 C 496.959 198.398 496.661 198.632 496.381 198.913 L 481.671 213.622 C 480.638 214.657 480.071 216.027 480.071 217.489 C 480.071 218.95 480.638 220.321 481.671 221.355 C 482.703 222.388 484.077 222.956 485.536 222.956 C 486.997 222.955 488.369 222.387 489.403 221.354 Z  M 516.128 167.608 C 526.429 167.608 534.808 175.988 534.808 186.288 C 534.808 196.59 526.429 204.969 516.128 204.969 C 505.827 204.969 497.449 196.588 497.449 186.288 C 497.449 175.988 505.827 167.608 516.128 167.608 Z  M 484.248 218.777 C 483.561 218.087 483.561 216.887 484.248 216.198 L 498.957 201.49 C 499.083 201.362 499.168 201.315 499.168 201.308 C 499.207 201.311 499.583 201.361 500.623 202.403 C 501.664 203.441 501.711 203.817 501.719 203.829 C 501.711 203.852 501.664 203.937 501.534 204.068 L 486.826 218.776 C 486.48 219.121 486.023 219.31 485.535 219.31 C 485.05 219.309 484.593 219.12 484.248 218.777 Z " fill="rgb(147,134,134)"/></g></g><g style="isolation:isolate"><path d=" M 520.281 121.593 L 520.749 122.112 L 520.749 122.112 Q 523.19 124.969 523.19 128.398 L 523.19 128.398 L 523.19 128.398 Q 523.19 131.826 521.606 133.203 L 521.606 133.203 L 521.606 133.203 Q 520.021 134.58 516.853 134.58 L 516.853 134.58 L 497.685 134.58 L 497.685 125.749 L 513.892 125.749 L 513.892 125.749 Q 515.19 125.749 515.19 124.606 L 515.19 124.606 L 515.19 124.606 Q 515.19 123.151 514.463 122.164 L 514.463 122.164 L 497.685 122.164 L 497.685 113.333 L 513.892 113.333 L 513.892 113.333 Q 515.19 113.333 515.19 112.191 L 515.19 112.191 L 515.19 112.191 Q 515.19 110.736 514.463 109.749 L 514.463 109.749 L 497.685 109.749 L 497.685 101.022 L 522.567 101.022 L 522.567 108.97 L 520.749 109.489 L 520.749 109.697 L 520.749 109.697 Q 523.19 112.554 523.19 116.476 L 523.19 116.476 L 523.19 116.476 Q 523.19 120.398 520.281 121.593 L 520.281 121.593 L 520.281 121.593 Z  M 515.762 148.086 L 515.762 148.086 L 515.762 148.086 Q 515.762 146.735 514.853 146.319 L 514.853 146.319 L 514.853 146.319 Q 513.944 145.904 512.074 145.904 L 512.074 145.904 L 512.074 150.423 L 513.32 150.423 L 513.32 150.423 Q 515.762 150.423 515.762 148.086 Z  M 523.19 148.293 L 523.19 148.293 L 523.19 148.293 Q 523.19 153.644 520.619 155.955 L 520.619 155.955 L 520.619 155.955 Q 518.048 158.267 513.268 158.267 L 513.268 158.267 L 513.268 158.267 Q 512.645 158.267 507.658 157.903 L 507.658 157.903 L 507.658 146.06 L 507.658 146.06 Q 503.762 146.06 503.762 149.644 L 503.762 149.644 L 503.762 149.644 Q 503.762 151.358 504.957 156.345 L 504.957 156.345 L 498.516 157.072 L 498.516 157.072 Q 497.165 152.709 497.165 148.345 L 497.165 148.345 L 497.165 148.345 Q 497.165 142.995 500.671 140.138 L 500.671 140.138 L 500.671 140.138 Q 504.178 137.281 510.204 137.281 L 510.204 137.281 L 510.204 137.281 Q 523.19 137.281 523.19 148.293 Z " fill-rule="evenodd" fill="rgb(38,109,211)"/><path d=" M 65.692 107.947 L 94.006 107.947 L 76.288 191.152 L 35.294 191.152 L 17.402 107.947 L 47.974 107.947 L 55.444 161.274 L 57.702 161.274 L 65.692 107.947 L 65.692 107.947 Z  M 133.959 130.702 L 133.959 130.702 L 133.959 130.702 Q 129.442 130.702 128.053 133.742 L 128.053 133.742 L 128.053 133.742 Q 126.663 136.782 126.663 143.035 L 126.663 143.035 L 141.775 143.035 L 141.775 138.866 L 141.775 138.866 Q 141.775 130.702 133.959 130.702 Z  M 134.653 105.862 L 134.653 105.862 L 134.653 105.862 Q 152.545 105.862 160.275 114.46 L 160.275 114.46 L 160.275 114.46 Q 168.005 123.059 168.005 139.04 L 168.005 139.04 L 168.005 139.04 Q 168.005 141.124 166.789 157.8 L 166.789 157.8 L 127.184 157.8 L 127.184 157.8 Q 127.184 170.828 139.17 170.828 L 139.17 170.828 L 139.17 170.828 Q 144.902 170.828 161.578 166.833 L 161.578 166.833 L 164.01 188.372 L 164.01 188.372 Q 149.418 192.889 134.827 192.889 L 134.827 192.889 L 134.827 192.889 Q 116.935 192.889 107.382 181.163 L 107.382 181.163 L 107.382 181.163 Q 97.828 169.438 97.828 149.288 L 97.828 149.288 L 97.828 149.288 Q 97.828 105.862 134.653 105.862 Z  M 204.83 144.425 L 204.83 144.425 L 204.83 191.152 L 175.995 191.152 L 175.995 107.947 L 201.356 107.947 L 203.093 112.984 L 203.788 112.984 L 203.788 112.984 Q 207.783 108.468 211.866 107.165 L 211.866 107.165 L 211.866 107.165 Q 215.948 105.862 225.154 105.862 L 225.154 105.862 L 223.938 133.655 L 215.948 133.655 L 215.948 133.655 Q 209.173 133.655 207.002 135.739 L 207.002 135.739 L 207.002 135.739 Q 204.83 137.824 204.83 144.425 Z  M 259.721 108.815 L 259.721 191.152 L 231.06 191.152 L 231.06 108.815 L 259.721 108.815 L 259.721 108.815 Z  M 233.318 102.214 L 233.318 102.214 L 233.318 102.214 Q 229.67 99.088 229.67 92.139 L 229.67 92.139 L 229.67 92.139 Q 229.67 85.191 233.318 81.891 L 233.318 81.891 L 233.318 81.891 Q 236.966 78.59 245.304 78.59 L 245.304 78.59 L 245.304 78.59 Q 253.642 78.59 257.29 81.891 L 257.29 81.891 L 257.29 81.891 Q 260.937 85.191 260.937 92.052 L 260.937 92.052 L 260.937 92.052 Q 260.937 98.914 257.29 102.127 L 257.29 102.127 L 257.29 102.127 Q 253.642 105.341 245.304 105.341 L 245.304 105.341 L 245.304 105.341 Q 236.966 105.341 233.318 102.214 Z  M 298.11 78.59 L 298.11 78.59 L 298.11 78.59 Q 308.88 78.59 320.692 79.632 L 320.692 79.632 L 318.26 104.994 L 318.26 104.994 Q 310.444 104.125 306.883 104.125 L 306.883 104.125 L 306.883 104.125 Q 303.322 104.125 303.322 107.252 L 303.322 107.252 L 303.322 110.378 L 317.565 110.378 L 316.176 131.918 L 303.669 131.918 L 303.669 191.152 L 274.66 191.152 L 274.66 131.918 L 267.017 131.918 L 267.017 110.378 L 274.66 110.378 L 274.66 101.693 L 274.66 101.693 Q 274.66 78.59 298.11 78.59 Z  M 350.917 108.815 L 350.917 191.152 L 322.256 191.152 L 322.256 108.815 L 350.917 108.815 L 350.917 108.815 Z  M 324.514 102.214 L 324.514 102.214 L 324.514 102.214 Q 320.866 99.088 320.866 92.139 L 320.866 92.139 L 320.866 92.139 Q 320.866 85.191 324.514 81.891 L 324.514 81.891 L 324.514 81.891 Q 328.162 78.59 336.499 78.59 L 336.499 78.59 L 336.499 78.59 Q 344.837 78.59 348.485 81.891 L 348.485 81.891 L 348.485 81.891 Q 352.133 85.191 352.133 92.052 L 352.133 92.052 L 352.133 92.052 Q 352.133 98.914 348.485 102.127 L 348.485 102.127 L 348.485 102.127 Q 344.837 105.341 336.499 105.341 L 336.499 105.341 L 336.499 105.341 Q 328.162 105.341 324.514 102.214 Z  M 398.252 131.223 L 398.252 131.223 L 398.252 131.223 Q 393.127 131.223 391.39 135.826 L 391.39 135.826 L 391.39 135.826 Q 389.653 140.429 389.653 150.157 L 389.653 150.157 L 389.653 150.157 Q 389.653 159.885 391.304 164.227 L 391.304 164.227 L 391.304 164.227 Q 392.954 168.57 398.252 168.57 L 398.252 168.57 L 398.252 168.57 Q 403.55 168.57 412.061 166.659 L 412.061 166.659 L 415.188 188.893 L 415.188 188.893 Q 403.202 192.889 393.822 192.889 L 393.822 192.889 L 393.822 192.889 Q 377.32 192.889 368.895 181.771 L 368.895 181.771 L 368.895 181.771 Q 360.471 170.654 360.471 150.678 L 360.471 150.678 L 360.471 150.678 Q 360.471 130.702 369.156 118.282 L 369.156 118.282 L 369.156 118.282 Q 377.841 105.862 394.343 105.862 L 394.343 105.862 L 394.343 105.862 Q 406.676 105.862 416.578 110.031 L 416.578 110.031 L 413.451 135.566 L 413.451 135.566 Q 403.376 131.223 398.252 131.223 Z  M 484.497 129.66 L 484.497 129.66 L 483.628 165.617 L 483.628 165.617 Q 483.628 168.917 485.278 170.046 L 485.278 170.046 L 485.278 170.046 Q 486.929 171.175 490.924 171.175 L 490.924 171.175 L 488.318 192.194 L 488.318 192.194 Q 478.243 192.889 477.201 192.889 L 477.201 192.889 L 477.201 192.889 Q 464.347 192.889 460.873 184.03 L 460.873 184.03 L 460.004 184.03 L 460.004 184.03 Q 453.577 192.889 440.202 192.889 L 440.202 192.889 L 440.202 192.889 Q 429.953 192.889 424.481 186.288 L 424.481 186.288 L 424.481 186.288 Q 419.01 179.687 419.01 168.222 L 419.01 168.222 L 419.01 168.222 Q 419.01 153.805 427.955 148.246 L 427.955 148.246 L 427.955 148.246 Q 436.901 142.688 456.183 140.951 L 456.183 140.951 L 456.183 136.782 L 456.183 136.782 Q 456.183 131.918 451.319 131.918 L 451.319 131.918 L 451.319 131.918 Q 442.981 131.918 425.263 136.955 L 425.263 136.955 L 420.92 111.594 L 420.92 111.594 Q 443.155 105.862 457.92 105.862 L 457.92 105.862 L 457.92 105.862 Q 472.685 105.862 478.591 111.594 L 478.591 111.594 L 478.591 111.594 Q 484.497 117.327 484.497 129.66 Z  M 450.971 172.565 L 450.971 172.565 L 450.971 172.565 Q 457.399 172.565 457.399 165.791 L 457.399 165.791 L 457.399 157.279 L 457.399 157.279 Q 450.971 158.147 448.279 159.971 L 448.279 159.971 L 448.279 159.971 Q 445.587 161.795 445.587 166.138 L 445.587 166.138 L 445.587 166.138 Q 445.587 172.565 450.971 172.565 Z " fill-rule="evenodd" fill="rgb(52,64,85)"/></g></g></g></svg>